<svg width="79" height="36" viewBox="0 0 79 36" fill="none" xmlns="http://www.w3.org/2000/svg">
<path d="M72.6537 11.0395C72.715 12.7617 73.4615 13.6034 74.7682 13.6034C75.6505 13.6034 76.6762 13.0913 77.5604 12.4951L78.0316 13.3579C77.0867 14.3272 75.2192 15.408 73.4552 15.408C71.5453 15.408 70.2512 14.0752 70.2512 11.613C70.2512 7.94233 73.1589 4.78386 76.452 4.78386C78.1756 4.78386 78.9752 5.66436 78.9752 6.89542C78.9707 9.31077 75.9739 10.5418 72.6537 11.0395ZM75.3632 6.32191C74.153 6.32191 72.9619 7.88094 72.6537 9.95214C75.1175 9.56283 76.4924 8.5369 76.4924 7.36721C76.4874 6.68542 76.0768 6.31707 75.3581 6.31707L75.3632 6.32191ZM76.1046 21.1936C77.8282 21.1936 78.6297 22.0756 78.6297 23.3067C78.6297 25.7301 75.6328 26.9564 72.3063 27.4492C72.3676 29.173 73.1141 30.0131 74.4208 30.0131C75.3032 30.0131 76.3307 29.501 77.2131 28.9064L77.6848 29.7676C76.7413 30.7369 74.8737 31.8177 73.1078 31.8177C71.1998 31.8129 69.9069 30.48 69.9069 28.0195C69.9069 24.3471 72.8154 21.1887 76.0996 21.1887L76.1046 21.1936ZM76.1451 23.7785C76.1451 23.1016 75.7345 22.7316 75.0139 22.7316C73.8038 22.7316 72.6133 24.2906 72.3044 26.3618C74.7651 25.9676 76.14 24.9417 76.14 23.7736L76.1451 23.7785ZM64.7823 15.0542L62.094 15.3014L58.8095 6.41562C58.4151 6.33881 58.0297 6.22188 57.6592 6.06665V5.02135H62.6885V6.04726C62.2434 6.21484 61.7829 6.33821 61.3137 6.41562L63.8179 13.3901L66.3524 6.46084C65.8813 6.37846 65.2655 6.25567 64.8985 6.05049V5.02459H69.4547V6.06988C69.077 6.24395 68.676 6.36153 68.2642 6.41885L64.7823 15.0542ZM54.8545 3.28459C54.5437 3.28427 54.2399 3.1918 53.9816 3.01888C53.7233 2.84595 53.522 2.60032 53.4033 2.31305C53.2846 2.02579 53.2537 1.70976 53.3145 1.40494C53.3754 1.10011 53.5252 0.82016 53.7451 0.600478C53.965 0.380794 54.2451 0.231237 54.55 0.170712C54.8549 0.110188 55.1709 0.141414 55.4581 0.260441C55.7452 0.379468 55.9906 0.580952 56.1633 0.839429C56.336 1.0979 56.4281 1.40177 56.4281 1.71261C56.4277 2.12967 56.2617 2.5295 55.9666 2.82426C55.6715 3.11902 55.2716 3.28459 54.8545 3.28459ZM55.6203 5.78877C55.6203 5.99395 55.5799 6.30091 55.5589 6.50612L54.47 13.1931C54.5288 13.2573 54.5828 13.3259 54.6315 13.3982H56.315V14.198C55.3666 14.7053 53.4861 15.4016 52.7817 15.4016C52.2081 15.4016 51.9205 15.0333 51.9205 14.4177C51.9205 14.2319 51.9819 13.8845 52.0029 13.6987L53.0903 7.01176L52.9287 6.80656H51.2485V6.00688C52.192 5.47373 54.1016 4.7774 54.7575 4.7774C55.3537 4.77902 55.6203 5.16838 55.6203 5.78392V5.78877ZM45.3887 29.3119V23.011H43.87V21.5748H45.3887L46.5794 18.8671H47.6666V21.5748H50.788V23.011H47.6666V28.5041C47.6666 29.572 48.1804 30.0438 49.0432 30.0438C49.692 30.0293 50.3353 29.9205 50.9528 29.7207L51.1773 30.745C50.1918 31.1973 48.6328 31.8113 47.4421 31.8113C45.9848 31.8129 45.3887 30.9324 45.3887 29.3119ZM43.8765 12.9007V6.59978H42.3562V5.16353H43.8765L45.0672 2.45578H46.1577V5.16353H49.2774V6.59978H46.1577V12.0928C46.1577 13.1591 46.6715 13.6309 47.5326 13.6309C48.1815 13.6167 48.8248 13.5078 49.4422 13.3078L49.6684 14.3337C48.6829 14.7844 47.1222 15.4 45.9315 15.4C44.471 15.4016 43.8765 14.5211 43.8765 12.9007ZM40.6097 25.5363L40.1994 23.3827C39.747 23.1371 38.9877 22.9529 38.0845 22.9529C36.4011 22.9529 35.2314 24.0838 35.2314 26.2552C35.2314 28.7981 36.729 30.0293 38.9667 30.0293C39.976 30.0094 40.9751 29.8222 41.9232 29.4751V30.9292C41.2463 31.3379 39.5628 31.8096 38.0022 31.8096C34.6369 31.8096 32.9938 29.9646 32.9938 27.0921C32.9938 23.7074 35.3962 21.1855 38.8229 21.1855C40.1154 21.1855 41.3481 21.5538 42.1284 22.0466C42.1096 23.1694 41.9928 24.2884 41.7795 25.3908L40.6097 25.5363ZM37.3785 15.4032C36.8454 15.4032 36.5788 15.0801 36.5788 14.5211C36.5788 13.8862 37.4609 10.3981 37.4609 10.3981H37.2347C35.6192 13.967 34.422 15.4065 32.8629 15.4065C31.5284 15.4065 30.4201 14.0316 30.4201 12.0024C30.4201 8.22831 33.3282 4.78224 36.3736 4.78224C36.9506 4.77755 37.5228 4.88738 38.0571 5.10537C38.2178 4.78282 38.4665 4.51231 38.7744 4.32503L40.18 4.59323L38.8261 13.2092L38.9877 13.3934H40.7535V14.2141C40.0701 14.5825 38.1201 15.4016 37.3801 15.4016L37.3785 15.4032ZM35.6127 6.27506C33.9502 6.27506 32.8419 8.69846 32.8419 11.0346C32.8419 12.5517 33.2329 13.458 33.9922 13.458C34.5868 13.458 36.2912 10.6275 37.6047 6.77107C37.0926 6.43985 36.1895 6.27506 35.6143 6.27506H35.6127ZM29.5526 29.6189L29.7141 29.803H31.48V30.6238C30.8014 30.9938 28.8514 31.8129 28.113 31.8129C27.5783 31.8129 27.3052 31.4897 27.3052 30.9324C27.3052 30.2958 28.189 26.8094 28.189 26.8094H27.9628C26.3472 30.3782 25.15 31.8177 23.5894 31.8177C22.2565 31.8177 21.1466 30.4445 21.1466 28.4136C21.1466 24.6396 24.0628 21.1936 27.1001 21.1936C27.677 21.1896 28.2491 21.2993 28.7835 21.5167C28.9481 21.1907 29.2026 20.9187 29.517 20.7331L30.9129 20.9997L29.5526 29.6189ZM26.3504 22.6863C24.688 22.6863 23.5797 25.1097 23.5797 27.4443C23.5797 28.9629 23.9691 29.8677 24.7284 29.8677C25.3245 29.8677 27.0274 27.0372 28.3425 23.1807C27.8287 22.8495 26.932 22.6863 26.3504 22.6863ZM22.5117 11.0395C22.5732 12.7617 23.3196 13.6034 24.6266 13.6034C25.5087 13.6034 26.5347 13.0913 27.4184 12.4951L27.8901 13.3579C26.945 14.3272 25.0773 15.408 23.3131 15.408C21.4035 15.408 20.1093 14.0752 20.1093 11.613C20.1093 7.94233 23.0255 4.78386 26.3101 4.78386C28.0339 4.78386 28.8336 5.66436 28.8336 6.89542C28.8336 9.31077 25.8367 10.5418 22.5117 11.0395ZM25.2212 6.32191C24.0111 6.32191 22.8203 7.88094 22.5117 9.95214C24.9756 9.56283 26.3504 8.5369 26.3504 7.36721C26.3504 6.68542 25.9401 6.31707 25.2212 6.31707V6.32191ZM20.0512 23.7979H19.0818C18.6066 23.7897 18.1362 23.8932 17.7083 24.1C17.2804 24.3069 16.9069 24.6112 16.618 24.9886V30.1165C17.3473 30.1681 18.066 30.3198 18.7539 30.5673V31.5931H12.823V30.5462C13.3185 30.3457 13.835 30.2016 14.3627 30.1165V23.5474C13.7994 23.4353 13.2713 23.1892 12.823 22.8301V22.0223L16.0865 21.2226H16.5179L16.3563 23.8479H16.4791C17.2384 22.0433 18.1626 21.2436 19.5375 21.2436C19.8404 21.2311 20.1423 21.2863 20.4212 21.4052L20.0512 23.7979ZM17.6715 7.38338C17.1964 7.3753 16.7261 7.47869 16.2983 7.68515C15.8704 7.89168 15.4969 8.19553 15.2077 8.57246V13.7004C15.9363 13.7535 16.6543 13.9056 17.3418 14.1527V15.1786H11.4093V14.1317C11.9051 13.9315 12.4215 13.7868 12.949 13.7004V7.13783C12.3856 7.02509 11.8575 6.77846 11.4093 6.41885V5.61913L14.6745 4.81941H15.1043L14.9427 7.44477H15.0655C15.8248 5.64013 16.7489 4.84041 18.1238 4.84041C18.4267 4.8287 18.7284 4.88385 19.0076 5.00197L18.6376 7.38174L17.6715 7.38338ZM5.74831 31.8549C5.11146 31.8588 4.48118 31.7261 3.90006 31.4655V34.4188C4.51101 34.4894 5.11107 34.6342 5.68691 34.8502V35.8955H0V34.8502C0.499612 34.6402 1.02412 34.4952 1.56067 34.4188V23.5474C1.04691 23.4441 0.348968 23.1371 0.0210011 22.8301V22.0223L3.34429 21.229H3.75465V22.5425C4.4122 22.1322 5.78708 21.1887 7.53196 21.1887C9.60638 21.1887 11.2074 22.6427 11.2074 25.722C11.209 29.6189 8.76625 31.8549 5.74831 31.8549ZM5.95348 23.0547C5.23499 23.0756 4.53153 23.2654 3.90006 23.6088V29.4751C4.61239 29.904 5.4307 30.1245 6.26207 30.1116C8.02629 30.1116 8.97145 29.0647 8.97145 26.7883C8.97145 24.3682 7.7064 23.0547 5.95348 23.0547ZM7.7597 9.1266L7.34937 6.97298C6.89697 6.72742 6.13766 6.54161 5.23454 6.54161C3.55109 6.54161 2.38139 7.67258 2.38139 9.84553C2.38139 12.3885 3.88067 13.6196 6.11828 13.6196C7.12712 13.5996 8.1257 13.4124 9.0732 13.0654V14.5195C8.39627 14.9299 6.7128 15.4016 5.15215 15.4016C1.78686 15.4016 0.143788 13.555 0.143788 10.684C0.143788 7.29938 2.54619 4.7774 5.97449 4.7774C7.26695 4.7774 8.49808 5.14576 9.2784 5.63852C9.25964 6.76077 9.14286 7.87923 8.92945 8.98121L7.7597 9.1266ZM54.1016 18.0496L55.8788 16.2724L57.656 18.0496L55.8788 19.8268L54.1016 18.0496ZM55.9628 21.1887C56.559 21.1887 56.8255 21.5781 56.8255 22.1936C56.8255 22.3988 56.7835 22.7057 56.7641 22.9109L55.6752 29.5979C55.7337 29.6625 55.7877 29.731 55.8368 29.803H57.5202V30.6028C56.5751 31.1165 54.6865 31.8129 53.9885 31.8129C53.415 31.8129 53.1274 31.4445 53.1274 30.829C53.1274 30.6448 53.1888 30.2958 53.2098 30.1116L54.2971 23.4247L54.1355 23.2195H52.4586V22.4198C53.3972 21.8866 55.3069 21.1887 55.9628 21.1887ZM64.8745 21.1887C66.1667 21.1887 67.3996 21.557 68.1802 22.0498C68.1613 23.1726 68.0444 24.2916 67.8309 25.3941L66.6613 25.5363L66.2495 23.3827C65.7985 23.1371 65.0394 22.9529 64.1362 22.9529C62.4527 22.9529 61.2813 24.0838 61.2813 26.2552C61.2813 28.7981 62.7806 30.0293 65.0185 30.0293C66.0278 30.0093 67.0269 29.8221 67.9749 29.4751V30.9292C67.296 31.3379 65.6128 31.8096 64.0535 31.8096C60.6868 31.8096 59.0454 29.9646 59.0454 27.0921C59.0454 23.7106 61.4461 21.1887 64.8745 21.1887Z" fill="black"/>
</svg>
